<?xml version="1.0"?>
<svg xmlns="http://www.w3.org/2000/svg" height="512px" viewBox="-52 0 512 512" width="512px" class=""><g><path d="m312.117188 0h-215.742188c-19.585938 0-35.613281 16.027344-35.613281 35.613281v440.773438c0 19.585937 16.027343 35.613281 35.613281 35.613281h215.742188c19.585937 0 35.613281-16.027344 35.613281-35.613281v-440.773438c0-19.585937-16.027344-35.613281-35.613281-35.613281zm0 0" fill="#8d909f" data-original="#8D909F" class=""/><path d="m91.730469 476.386719v-440.773438c0-19.585937 16.027343-35.613281 35.613281-35.613281h-30.96875c-19.585938 0-35.613281 16.027344-35.613281 35.613281v440.773438c0 19.585937 16.027343 35.613281 35.613281 35.613281h30.96875c-19.585938 0-35.613281-16.027344-35.613281-35.613281zm0 0" fill="#75798a" data-original="#75798A"/><path d="m91.730469 96.089844v326.621094c0 2.472656 2.171875 4.644531 4.644531 4.644531h215.742188c2.476562 0 4.644531-2.171875 4.644531-4.644531v-326.621094zm0 0" fill="#e4eaf8" data-original="#E4EAF8" class=""/><path d="m122.636719 422.710938v-326.621094h-30.90625v326.621094c0 2.472656 2.171875 4.644531 4.644531 4.644531h30.90625c-2.472656 0-4.644531-2.171875-4.644531-4.644531zm0 0" fill="#d8dce5" data-original="#D8DCE5"/><path d="m204.246094 451.097656c-9.675782 0-17.589844 7.917969-17.589844 17.59375 0 9.671875 7.914062 17.589844 17.589844 17.589844 9.675781 0 17.589844-7.917969 17.589844-17.589844 0-9.675781-7.914063-17.59375-17.589844-17.59375zm0 0" fill="#75798a" data-original="#75798A"/><path d="m211.382812 468.691406c0-4.867187 2.003907-9.285156 5.226563-12.480468-3.183594-3.152344-7.554687-5.109376-12.363281-5.109376-9.675782 0-17.589844 7.914063-17.589844 17.589844 0 9.675782 7.914062 17.589844 17.589844 17.589844 4.808594 0 9.179687-1.957031 12.363281-5.109375-3.222656-3.195313-5.226563-7.613281-5.226563-12.480469zm0 0" fill="#7e8292" data-original="#7E8292"/><path d="m222.914062 38.695312h-37.335937c-4.265625 0-7.726563-3.460937-7.726563-7.726562 0-4.269531 3.460938-7.726562 7.726563-7.726562h37.335937c4.265626 0 7.726563 3.457031 7.726563 7.726562 0 4.265625-3.460937 7.726562-7.726563 7.726562zm0 0" fill="#75798a" data-original="#75798A"/><path d="m312.117188 61.933594h-215.742188c-2.472656 0-4.644531 2.171875-4.644531 4.644531v31.570313h225.03125v-31.570313c0-2.472656-2.167969-4.644531-4.644531-4.644531zm0 0" fill="#00c3ff" data-original="#00C3FF" class="" style="fill:#20C41C" data-old_color="#1FC31B"/><path d="m132.980469 61.933594h-36.605469c-2.472656 0-4.644531 2.171875-4.644531 4.644531v31.570313h41.25zm0 0" fill="#f25c5c" data-original="#F25C5C" class="active-path" style="fill:#317B08" data-old_color="#317A08"/><path d="m127.410156 61.933594h-31.035156c-2.476562 0-4.644531 2.171875-4.644531 4.644531v31.570313h31.035156v-31.570313c0-2.472656 2.171875-4.644531 4.644531-4.644531zm0 0" fill="#e54a4a" data-original="#E54A4A" class="" style="fill:#1F9C10" data-old_color="#1F9E10"/><path d="m394.714844 161.277344h-158.421875c-7.574219 0-13.773438 6.199218-13.773438 13.773437v82.65625c0 7.578125 6.199219 13.777344 13.773438 13.777344h97.667969c2.859374 0 5.570312 1.285156 7.382812 3.5l25.054688 30.65625c1.863281 2.273437 5.550781.960937 5.550781-1.980469v-28.09375c0-2.253906 1.828125-4.082031 4.082031-4.082031h18.6875c7.574219 0 13.773438-6.199219 13.773438-13.777344v-82.652343c0-7.578126-6.199219-13.777344-13.777344-13.777344zm0 0" fill="#00c3ff" data-original="#00C3FF" class="" style="fill:#20C41C" data-old_color="#1FC31B"/><path d="m253.167969 257.707031v-82.65625c0-7.578125 6.199219-13.777343 13.777343-13.777343h-30.652343c-7.574219 0-13.773438 6.199218-13.773438 13.777343v82.65625c0 7.574219 6.199219 13.773438 13.773438 13.773438h30.652343c-7.578124 0-13.777343-6.199219-13.777343-13.773438zm0 0" fill="#00aaf0" data-original="#00AAF0" class="" style="fill:#149E1E" data-old_color="#159F1F"/><path d="m371.992188 274.984375c-1.808594-2.214844-4.519532-3.503906-7.382813-3.503906h-30.648437c2.859374 0 5.570312 1.285156 7.382812 3.503906l25.054688 30.652344c1.859374 2.277343 5.550781.960937 5.550781-1.976563v-28.097656c0-.195312.03125-.378906.054687-.566406zm0 0" fill="#00aaf0" data-original="#00AAF0" class="" style="fill:#149E1E" data-old_color="#159F1F"/><path d="m13.777344 234.035156h158.421875c7.574219 0 13.773437 6.199219 13.773437 13.773438v82.65625c0 7.578125-6.199218 13.777344-13.773437 13.777344h-97.667969c-2.859375 0-5.570312 1.285156-7.382812 3.5l-25.054688 30.65625c-1.863281 2.277343-5.550781.960937-5.550781-1.980469v-28.09375c0-2.253907-1.828125-4.082031-4.082031-4.082031h-18.683594c-7.578125 0-13.777344-6.199219-13.777344-13.777344v-82.65625c0-7.574219 6.199219-13.773438 13.777344-13.773438zm0 0" fill="#ffc850" data-original="#FFC850" class="" style="fill:#0AFF00" data-old_color="#11FF00"/><path d="m63.113281 344.242188h-18.6875c-7.578125 0-13.777343-6.199219-13.777343-13.777344v-82.65625c0-7.574219 6.199218-13.773438 13.777343-13.773438h-30.648437c-7.578125 0-13.777344 6.199219-13.777344 13.773438v82.65625c0 7.578125 6.199219 13.777344 13.777344 13.777344h18.683594c2.253906 0 4.082031 1.824218 4.082031 4.082031v28.09375c0 2.941406 3.6875 4.253906 5.550781 1.980469l25.042969-30.640626c-.277344-1.984374-1.964844-3.515624-4.023438-3.515624zm0 0" fill="#feb644" data-original="#FEB644" class="" style="fill:#1BC014" data-old_color="#1DC016"/><path d="m371.949219 242.472656h-112.886719c-4.265625 0-7.726562-3.457031-7.726562-7.726562 0-4.265625 3.457031-7.726563 7.726562-7.726563h112.882812c4.269532 0 7.730469 3.457031 7.730469 7.726563 0 4.269531-3.460937 7.726562-7.726562 7.726562zm0 0" fill="#00aaf0" data-original="#00AAF0" class="" style="fill:#149E1E" data-old_color="#159F1F"/><path d="m371.949219 205.738281h-112.886719c-4.265625 0-7.726562-3.460937-7.726562-7.726562 0-4.269531 3.457031-7.726563 7.726562-7.726563h112.882812c4.269532 0 7.730469 3.457032 7.730469 7.726563 0 4.265625-3.460937 7.726562-7.726562 7.726562zm0 0" fill="#00aaf0" data-original="#00AAF0" class="" style="fill:#149E1E" data-old_color="#159F1F"/><g fill="#fda537"><path d="m149.429688 315.230469h-112.886719c-4.265625 0-7.726563-3.457031-7.726563-7.726563 0-4.265625 3.460938-7.726562 7.726563-7.726562h112.886719c4.265624 0 7.726562 3.460937 7.726562 7.726562 0 4.269532-3.460938 7.726563-7.726562 7.726563zm0 0" data-original="#000000" class="" style="fill:#49952C" data-old_color="#47912B"/><path d="m149.429688 278.496094h-112.886719c-4.265625 0-7.726563-3.460938-7.726563-7.726563 0-4.269531 3.460938-7.726562 7.726563-7.726562h112.886719c4.265624 0 7.726562 3.457031 7.726562 7.726562 0 4.265625-3.460938 7.726563-7.726562 7.726563zm0 0" data-original="#000000" class="" style="fill:#49952C" data-old_color="#47912B"/></g></g> </svg>
