<svg height="512pt" viewBox="-96 0 512 512" width="512pt" xmlns="http://www.w3.org/2000/svg"><path d="m280.015625 463.984375h-240.015625c-22.054688 0-40-17.945313-40-40v-383.984375c0-22.054688 17.945312-40 40-40h240.015625c22.054687 0 40 17.945312 40 40v383.984375c0 22.054687-17.945313 40-40 40zm-240.015625-447.984375c-13.230469 0-24 10.769531-24 24v383.984375c0 13.230469 10.769531 24 24 24h240.015625c13.230469 0 24-10.769531 24-24v-383.984375c0-13.230469-10.769531-24-24-24zm0 0"/><path d="m280.015625 512h-240.015625c-22.054688 0-40-17.945312-40-40v-383.984375c0-4.421875 3.574219-8 8-8s8 3.578125 8 8v383.984375c0 13.230469 10.769531 24 24 24h240.015625c13.230469 0 24-10.769531 24-24v-383.984375c0-4.421875 3.578125-8 8-8 4.425781 0 8 3.578125 8 8v383.984375c0 22.054688-17.945313 40-40 40zm0 0"/><path d="m64.007812 512c-4.421874 0-8-3.574219-8-8v-15.984375c0-4.421875 3.578126-8 8-8 4.425782 0 8 3.578125 8 8v15.984375c0 4.425781-3.574218 8-8 8zm0 0"/><path d="m112.007812 512c-4.421874 0-8-3.574219-8-8v-15.984375c0-4.421875 3.578126-8 8-8 4.425782 0 8 3.578125 8 8v15.984375c0 4.425781-3.574218 8-8 8zm0 0"/><path d="m160.007812 512c-4.421874 0-8-3.574219-8-8v-15.984375c0-4.421875 3.578126-8 8-8 4.425782 0 8 3.578125 8 8v15.984375c0 4.425781-3.574218 8-8 8zm0 0"/><path d="m208.007812 512c-4.421874 0-8-3.574219-8-8v-15.984375c0-4.421875 3.578126-8 8-8 4.425782 0 8 3.578125 8 8v15.984375c0 4.425781-3.574218 8-8 8zm0 0"/><path d="m256.007812 512c-4.421874 0-8-3.574219-8-8v-15.984375c0-4.421875 3.578126-8 8-8 4.425782 0 8 3.578125 8 8v15.984375c0 4.425781-3.574218 8-8 8zm0 0"/><path d="m168 87.984375c-2.046875 0-4.097656-.785156-5.65625-2.34375l-15.984375-15.984375c-3.128906-3.128906-3.128906-8.183594 0-11.3125s8.183594-3.128906 11.3125 0l15.984375 15.984375c3.128906 3.128906 3.128906 8.183594 0 11.3125-1.558594 1.558594-3.609375 2.34375-5.65625 2.34375zm0 0"/><path d="m152.015625 87.984375c-2.046875 0-4.09375-.785156-5.65625-2.34375-3.128906-3.128906-3.128906-8.183594 0-11.3125l15.984375-15.984375c3.128906-3.128906 8.183594-3.128906 11.3125 0s3.128906 8.183594 0 11.3125l-15.984375 15.984375c-1.558594 1.558594-3.609375 2.34375-5.65625 2.34375zm0 0"/><path d="m248.144531 87.984375c-2.046875 0-4.097656-.785156-5.65625-2.34375l-15.984375-15.984375c-3.128906-3.128906-3.128906-8.183594 0-11.3125s8.183594-3.128906 11.3125 0l15.984375 15.984375c3.128907 3.128906 3.128907 8.183594 0 11.3125-1.570312 1.558594-3.617187 2.34375-5.65625 2.34375zm0 0"/><path d="m232.160156 87.984375c-2.046875 0-4.097656-.785156-5.65625-2.34375-3.128906-3.128906-3.128906-8.183594 0-11.3125l15.984375-15.984375c3.128907-3.128906 8.183594-3.128906 11.3125 0 3.128907 3.128906 3.128907 8.183594 0 11.3125l-15.984375 15.984375c-1.570312 1.558594-3.617187 2.34375-5.65625 2.34375zm0 0"/><path d="m88.113281 87.984375c-2.050781 0-4.097656-.785156-5.65625-2.34375l-15.984375-15.984375c-3.128906-3.128906-3.128906-8.183594 0-11.3125s8.183594-3.128906 11.3125 0l15.984375 15.984375c3.125 3.128906 3.125 8.183594 0 11.3125-1.570312 1.558594-3.609375 2.34375-5.65625 2.34375zm0 0"/><path d="m72.128906 87.984375c-2.050781 0-4.097656-.785156-5.65625-2.34375-3.128906-3.128906-3.128906-8.183594 0-11.3125l15.984375-15.984375c3.128907-3.128906 8.183594-3.128906 11.3125 0 3.125 3.128906 3.125 8.183594 0 11.3125l-15.984375 15.984375c-1.570312 1.558594-3.609375 2.34375-5.65625 2.34375zm0 0"/><path d="m168 248.144531c-2.046875 0-4.097656-.785156-5.65625-2.34375l-15.984375-15.984375c-3.128906-3.128906-3.128906-8.183594 0-11.3125s8.183594-3.128906 11.3125 0l15.984375 15.984375c3.128906 3.128907 3.128906 8.183594 0 11.3125-1.558594 1.558594-3.609375 2.34375-5.65625 2.34375zm0 0"/><path d="m152.015625 248.144531c-2.046875 0-4.09375-.785156-5.65625-2.34375-3.128906-3.128906-3.128906-8.183593 0-11.3125l15.984375-15.984375c3.128906-3.128906 8.183594-3.128906 11.3125 0s3.128906 8.183594 0 11.3125l-15.984375 15.984375c-1.558594 1.558594-3.609375 2.34375-5.65625 2.34375zm0 0"/><path d="m248.144531 248.144531c-2.046875 0-4.097656-.785156-5.65625-2.34375l-15.984375-15.984375c-3.128906-3.128906-3.128906-8.183594 0-11.3125s8.183594-3.128906 11.3125 0l15.984375 15.984375c3.128907 3.128907 3.128907 8.183594 0 11.3125-1.570312 1.558594-3.617187 2.34375-5.65625 2.34375zm0 0"/><path d="m232.160156 248.144531c-2.046875 0-4.097656-.785156-5.65625-2.34375-3.128906-3.128906-3.128906-8.183593 0-11.3125l15.984375-15.984375c3.128907-3.128906 8.183594-3.128906 11.3125 0 3.128907 3.128906 3.128907 8.183594 0 11.3125l-15.984375 15.984375c-1.570312 1.558594-3.617187 2.34375-5.65625 2.34375zm0 0"/><path d="m88.113281 248.144531c-2.050781 0-4.097656-.785156-5.65625-2.34375l-15.984375-15.984375c-3.128906-3.128906-3.128906-8.183594 0-11.3125s8.183594-3.128906 11.3125 0l15.984375 15.984375c3.125 3.128907 3.125 8.183594 0 11.3125-1.570312 1.558594-3.609375 2.34375-5.65625 2.34375zm0 0"/><path d="m72.128906 248.144531c-2.050781 0-4.097656-.785156-5.65625-2.34375-3.128906-3.128906-3.128906-8.183593 0-11.3125l15.984375-15.984375c3.128907-3.128906 8.183594-3.128906 11.3125 0 3.125 3.128906 3.125 8.183594 0 11.3125l-15.984375 15.984375c-1.570312 1.558594-3.609375 2.34375-5.65625 2.34375zm0 0"/><path d="m168 408.296875c-2.046875 0-4.097656-.785156-5.65625-2.34375l-15.984375-15.984375c-3.128906-3.128906-3.128906-8.183594 0-11.3125s8.183594-3.128906 11.3125 0l15.984375 15.984375c3.128906 3.128906 3.128906 8.183594 0 11.3125-1.558594 1.558594-3.609375 2.34375-5.65625 2.34375zm0 0"/><path d="m152.015625 408.296875c-2.046875 0-4.09375-.785156-5.65625-2.34375-3.128906-3.128906-3.128906-8.183594 0-11.3125l15.984375-15.984375c3.128906-3.128906 8.183594-3.128906 11.3125 0s3.128906 8.183594 0 11.3125l-15.984375 15.984375c-1.558594 1.558594-3.609375 2.34375-5.65625 2.34375zm0 0"/><path d="m248.144531 408.296875c-2.046875 0-4.097656-.785156-5.65625-2.34375l-15.984375-15.984375c-3.128906-3.128906-3.128906-8.183594 0-11.3125s8.183594-3.128906 11.3125 0l15.984375 15.984375c3.128907 3.128906 3.128907 8.183594 0 11.3125-1.570312 1.558594-3.617187 2.34375-5.65625 2.34375zm0 0"/><path d="m232.160156 408.296875c-2.046875 0-4.097656-.785156-5.65625-2.34375-3.128906-3.128906-3.128906-8.183594 0-11.3125l15.984375-15.984375c3.128907-3.128906 8.183594-3.128906 11.3125 0 3.128907 3.128906 3.128907 8.183594 0 11.3125l-15.984375 15.984375c-1.570312 1.558594-3.617187 2.34375-5.65625 2.34375zm0 0"/><path d="m88.113281 408.296875c-2.050781 0-4.097656-.785156-5.65625-2.34375l-15.984375-15.984375c-3.128906-3.128906-3.128906-8.183594 0-11.3125s8.183594-3.128906 11.3125 0l15.984375 15.984375c3.125 3.128906 3.125 8.183594 0 11.3125-1.570312 1.558594-3.609375 2.34375-5.65625 2.34375zm0 0"/><path d="m72.128906 408.296875c-2.050781 0-4.097656-.785156-5.65625-2.34375-3.128906-3.128906-3.128906-8.183594 0-11.3125l15.984375-15.984375c3.128907-3.128906 8.183594-3.128906 11.3125 0 3.125 3.128906 3.125 8.183594 0 11.3125l-15.984375 15.984375c-1.570312 1.558594-3.609375 2.34375-5.65625 2.34375zm0 0"/><path d="m208.039062 168c-2.046874 0-4.09375-.785156-5.65625-2.34375l-15.984374-15.984375c-3.125-3.128906-3.125-8.183594 0-11.3125 3.128906-3.128906 8.1875-3.128906 11.3125 0l15.984374 15.984375c3.128907 3.128906 3.128907 8.183594 0 11.3125-1.558593 1.558594-3.605468 2.34375-5.65625 2.34375zm0 0"/><path d="m192.054688 168c-2.046876 0-4.09375-.785156-5.65625-2.34375-3.125-3.128906-3.125-8.183594 0-11.3125l15.984374-15.984375c3.128907-3.128906 8.183594-3.128906 11.3125 0 3.128907 3.128906 3.128907 8.183594 0 11.3125l-15.984374 15.984375c-1.558594 1.558594-3.605469 2.34375-5.65625 2.34375zm0 0"/><path d="m128.152344 168c-2.046875 0-4.097656-.785156-5.65625-2.34375l-15.984375-15.984375c-3.128907-3.128906-3.128907-8.183594 0-11.3125 3.128906-3.128906 8.183593-3.128906 11.3125 0l15.984375 15.984375c3.128906 3.128906 3.128906 8.183594 0 11.3125-1.570313 1.558594-3.617188 2.34375-5.65625 2.34375zm0 0"/><path d="m112.167969 168c-2.046875 0-4.097657-.785156-5.65625-2.34375-3.128907-3.128906-3.128907-8.183594 0-11.3125l15.984375-15.984375c3.128906-3.128906 8.183594-3.128906 11.3125 0s3.128906 8.183594 0 11.3125l-15.984375 15.984375c-1.566407 1.558594-3.617188 2.34375-5.65625 2.34375zm0 0"/><path d="m208.039062 328.160156c-2.046874 0-4.09375-.785156-5.65625-2.34375l-15.984374-15.984375c-3.125-3.128906-3.125-8.183593 0-11.3125 3.128906-3.128906 8.1875-3.128906 11.3125 0l15.984374 15.984375c3.128907 3.128906 3.128907 8.183594 0 11.3125-1.558593 1.558594-3.605468 2.34375-5.65625 2.34375zm0 0"/><path d="m192.054688 328.160156c-2.046876 0-4.09375-.785156-5.65625-2.34375-3.125-3.128906-3.125-8.183594 0-11.3125l15.984374-15.984375c3.128907-3.128906 8.183594-3.128906 11.3125 0 3.128907 3.128907 3.128907 8.183594 0 11.3125l-15.984374 15.984375c-1.558594 1.558594-3.605469 2.34375-5.65625 2.34375zm0 0"/><path d="m128.152344 328.160156c-2.046875 0-4.097656-.785156-5.65625-2.34375l-15.984375-15.984375c-3.128907-3.128906-3.128907-8.183593 0-11.3125 3.128906-3.128906 8.183593-3.128906 11.3125 0l15.984375 15.984375c3.128906 3.128906 3.128906 8.183594 0 11.3125-1.570313 1.558594-3.617188 2.34375-5.65625 2.34375zm0 0"/><path d="m112.167969 328.160156c-2.046875 0-4.097657-.785156-5.65625-2.34375-3.128907-3.128906-3.128907-8.183594 0-11.3125l15.984375-15.984375c3.128906-3.128906 8.183594-3.128906 11.3125 0 3.128906 3.128907 3.128906 8.183594 0 11.3125l-15.984375 15.984375c-1.566407 1.558594-3.617188 2.34375-5.65625 2.34375zm0 0"/></svg>