<?xml version="1.0"?>
<svg xmlns="http://www.w3.org/2000/svg" xmlns:xlink="http://www.w3.org/1999/xlink" version="1.1" id="Layer_1" x="0px" y="0px" viewBox="0 0 506.389 506.389" style="enable-background:new 0 0 506.389 506.389;" xml:space="preserve" width="512px" height="512px" class=""><g><g>
	<g>
		<path style="fill:#797979;" d="M158.696,374.686c0-23.96-19.43-43.39-43.39-43.39s-43.39,19.43-43.39,43.39    s19.43,43.39,43.39,43.39S158.696,398.646,158.696,374.686" data-original="#797979"/>
		<path style="fill:#797979;" d="M454.318,374.686c0-23.96-19.43-43.39-43.39-43.39c-23.96,0-43.39,19.43-43.39,43.39    s19.43,43.39,43.39,43.39C434.888,418.076,454.318,398.646,454.318,374.686" data-original="#797979"/>
	</g>
	<path style="fill:#319533" d="M500.93,285.724l-37.931-15.178l-22.754-90.988c-1.927-7.723-8.869-13.147-16.835-13.147h-58.168   c-16.61,46.089-45.516,95.458-93.141,95.458h-34.729h-26.034H40.998L19.85,374.682h52.068c0-23.96,19.421-43.39,43.39-43.39   c23.96,0,43.39,19.43,43.39,43.39H332.83h34.712c0-23.96,19.421-43.39,43.39-43.39c23.96,0,43.39,19.43,43.39,43.39h43.39   c4.79,0,8.678-3.879,8.678-8.678v-72.227C506.389,290.236,504.228,287.043,500.93,285.724" data-original="#EE8472" class="" data-old_color="#17671B"/>
	<g>
		<path style="fill:#C0C0C0;" d="M115.306,392.042c-9.58,0-17.356-7.775-17.356-17.356s7.775-17.356,17.356-17.356    s17.356,7.775,17.356,17.356S124.886,392.042,115.306,392.042" data-original="#C0C0C0"/>
		<path style="fill:#C0C0C0;" d="M410.928,392.042c-9.58,0-17.356-7.775-17.356-17.356s7.775-17.356,17.356-17.356    s17.356,7.775,17.356,17.356S420.508,392.042,410.928,392.042" data-original="#C0C0C0"/>
	</g>
	<path style="fill:#085B1B" d="M384.894,313.94h-17.356c-4.79,0-8.678-3.888-8.678-8.678c0-4.79,3.888-8.678,8.678-8.678h17.356   c4.79,0,8.678,3.888,8.678,8.678C393.572,310.052,389.684,313.94,384.894,313.94" data-original="#DB776A" class="" data-old_color="#00FF3A"/>
	<path style="fill:#936A17" d="M272.105,261.872H41.002L71.913,88.313h312.98C384.892,88.313,361.392,261.872,272.105,261.872" data-original="#FFD479" class="active-path" data-old_color="#FFD479"/>
	<g>
		<path style="fill:#4FBA6F" d="M169.869,131.703H27.229c-4.799,0-8.678-3.888-8.678-8.678s3.879-8.678,8.678-8.678h142.64    c4.79,0,8.678,3.888,8.678,8.678S174.659,131.703,169.869,131.703" data-original="#4FBA6F" class=""/>
		<path style="fill:#4FBA6F" d="M163.686,166.415H21.047c-4.799,0-8.678-3.888-8.678-8.678s3.879-8.678,8.678-8.678h142.64    c4.79,0,8.678,3.888,8.678,8.678S168.477,166.415,163.686,166.415" data-original="#4FBA6F" class=""/>
		<path style="fill:#4FBA6F" d="M157.504,201.127H14.864c-4.799,0-8.678-3.888-8.678-8.678s3.879-8.678,8.678-8.678h142.64    c4.79,0,8.678,3.888,8.678,8.678S162.294,201.127,157.504,201.127" data-original="#4FBA6F" class=""/>
		<path style="fill:#4FBA6F" d="M151.318,235.838H8.678c-4.799,0-8.678-3.888-8.678-8.678s3.879-8.678,8.678-8.678h142.64    c4.79,0,8.678,3.888,8.678,8.678S156.108,235.838,151.318,235.838" data-original="#4FBA6F" class=""/>
	</g>
	<path style="fill:#085B1B" d="M402.25,250.851v-41.047c0-4.79-3.888-8.678-8.678-8.678c-4.79,0-8.678,3.888-8.678,8.678v41.047   c0,15.646,12.731,28.377,28.377,28.377h71.42l-21.695-8.678l-2.169-8.678h-47.555C407.196,261.872,402.25,256.926,402.25,250.851" data-original="#DB776A" class="" data-old_color="#00FF3A"/>
</g></g> </svg>
