<svg height="512pt" viewBox="-78 0 512 512" width="512pt" xmlns="http://www.w3.org/2000/svg"><path d="m314.921875 237.839844v-222.769532c0-8.324218-6.746094-15.070312-15.070313-15.070312h-243.625c-8.320312 0-15.066406 6.746094-15.066406 15.070312v222.769532c-23.855468 7.730468-41.160156 30.152344-41.160156 56.546875v29.277343c0 8.324219 6.746094 15.070313 15.070312 15.070313h9l9.734376 159.117187c.484374 7.949219 7.074218 14.148438 15.039062 14.148438h45.460938c8.320312 0 15.070312-6.746094 15.070312-15.070312v-158.195313h137.332031v158.195313c0 8.324218 6.746094 15.070312 15.066407 15.070312h45.460937c7.964844 0 14.554687-6.199219 15.039063-14.148438l9.734374-159.117187h9c8.324219 0 15.070313-6.746094 15.070313-15.070313v-29.277343c0-26.394531-17.300781-48.816407-41.15625-56.546875zm-243.625-207.699219h213.484375v204.816406h-213.484375zm-41.15625 264.246094c0-16.152344 13.140625-29.292969 29.289063-29.292969h237.21875c16.152343 0 29.289062 13.140625 29.289062 29.292969v14.210937h-295.796875zm49.09375 187.472656h-16.210937l-8.757813-143.125h24.96875zm213.824219 0h-16.214844v-143.125h24.96875zm0 0"/></svg>