<?xml version="1.0" encoding="iso-8859-1"?>
<!-- Generator: Adobe Illustrator 19.0.0, SVG Export Plug-In . SVG Version: 6.00 Build 0)  -->
<svg version="1.1" id="Layer_1" xmlns="http://www.w3.org/2000/svg" xmlns:xlink="http://www.w3.org/1999/xlink" x="0px" y="0px"
	 viewBox="0 0 504 504" style="enable-background:new 0 0 504 504;" xml:space="preserve">
<g>
	<g>
		<path d="M400.4,95.974H99.724c-26.792,0-48.584,20.924-48.584,46.644v70.4c0,2.208,1.792,4,4,4s4-1.792,4-4v-70.4
			c0-21.308,18.208-38.644,40.584-38.644h300.672c22.368,0,40.564,17.336,40.564,38.644v70.4c0,2.208,1.792,4,4,4s4-1.788,4.004-4
			v-70.4C448.964,116.898,427.176,95.974,400.4,95.974z"/>
	</g>
</g>
<g>
	<g>
		<path d="M37.928,204.634C17.012,204.634,0,221.65,0,242.57c0,20.92,17.012,37.936,37.928,37.936
			c20.92,0,37.94-17.016,37.94-37.936C75.868,221.65,58.848,204.634,37.928,204.634z M37.928,272.506
			C21.424,272.506,8,259.078,8,242.57c0-16.508,13.428-29.936,29.928-29.936c16.508,0,29.94,13.428,29.94,29.936
			S54.436,272.506,37.928,272.506z"/>
	</g>
</g>
<g>
	<g>
		<path d="M468.348,275.286c-2.208,0-4,1.792-4,4v97.6c0,7.86-7.3,11.444-14.08,11.444H51.524c-7.544,0-11.872-4.172-11.872-11.444
			v-97.6c0-2.208-1.792-4-4-4c-2.208,0-4,1.792-4,4v97.6c0,11.812,7.8,19.444,19.872,19.444h398.74
			c12.796,0,22.08-8.176,22.084-19.444v-97.6C472.348,277.078,470.556,275.286,468.348,275.286z"/>
	</g>
</g>
<g>
	<g>
		<path d="M70.736,251.902c-2.208,0-4,1.792-4,4V392.33c0,2.208,1.792,4,4,4s4-1.792,4-4V255.902
			C74.736,253.694,72.944,251.902,70.736,251.902z"/>
	</g>
</g>
<g>
	<g>
		<path d="M466.072,204.634c-20.916,0-37.936,17.016-37.936,37.936c0,20.92,17.02,37.936,37.936,37.936
			c20.912,0,37.928-17.016,37.928-37.936C504,221.65,486.988,204.634,466.072,204.634z M466.072,272.506
			c-16.508,0-29.936-13.428-29.936-29.936c0-16.508,13.428-29.936,29.936-29.936c16.504,0,29.928,13.428,29.928,29.936
			S482.576,272.506,466.072,272.506z"/>
	</g>
</g>
<g>
	<g>
		<path d="M58.288,238.566c-2.208,0-4,1.792-4,4c0,9.024-7.34,16.364-16.36,16.364c-9.016,0-16.352-7.34-16.352-16.364
			c0-9.02,7.336-16.36,16.352-16.36c2.208,0,4-1.792,4-4c0-2.208-1.792-4-4-4c-13.428,0-24.352,10.924-24.352,24.36
			c0,13.436,10.924,24.364,24.352,24.364c13.432,0,24.36-10.928,24.36-24.364C62.288,240.358,60.496,238.566,58.288,238.566z"/>
	</g>
</g>
<g>
	<g>
		<path d="M486.428,238.566c-2.208,0-4,1.792-4,4c0,9.024-7.34,16.364-16.356,16.364c-9.028,0-16.368-7.34-16.368-16.364
			c0-9.02,7.344-16.36,16.368-16.36c2.208,0,4-1.792,4-4c0-2.208-1.792-4-4-4c-13.436,0-24.368,10.924-24.368,24.36
			c0,13.436,10.932,24.364,24.368,24.364c13.428,0,24.352-10.928,24.356-24.364C490.428,240.358,488.636,238.566,486.428,238.566z"
			/>
	</g>
</g>
<g>
	<g>
		<path d="M433.264,251.902c-2.208,0-4,1.792-4,4V392.33c0,2.208,1.792,4,4,4c2.212,0,4-1.792,4-4V255.902
			C437.264,253.694,435.472,251.902,433.264,251.902z"/>
	</g>
</g>
<g>
	<g>
		<path d="M433.264,271.386H70.736c-2.208,0-4,1.792-4,4s1.792,4,4,4h362.528c2.212,0,4-1.792,4-4S435.472,271.386,433.264,271.386z
			"/>
	</g>
</g>
<g>
	<g>
		<path d="M433.264,302.574h-23.392c-2.208,0-4,1.792-4,4s1.792,4,4,4h23.392c2.212,0,4-1.792,4-4S435.472,302.574,433.264,302.574z
			"/>
	</g>
</g>
<g>
	<g>
		<path d="M382.584,302.574H70.736c-2.208,0-4,1.792-4,4s1.792,4,4,4h311.848c2.212,0,4-1.792,4-4S384.792,302.574,382.584,302.574z
			"/>
	</g>
</g>
<g>
	<g>
		<path d="M387.904,183.37c-2.208,0-4,1.792-4,4c0,3.46-2.824,6.276-6.296,6.276c-3.456,0-6.272-2.816-6.272-6.276
			c0-3.468,2.812-6.288,6.272-6.288c2.208,0,4-1.792,4-4s-1.792-4-4-4c-7.868,0-14.272,6.408-14.272,14.288
			c0,7.872,6.4,14.276,14.272,14.276c7.884,0,14.3-6.404,14.296-14.276C391.904,185.162,390.112,183.37,387.904,183.37z"/>
	</g>
</g>
<g>
	<g>
		<path d="M142.876,160.594c-1.716-1.38-4.24-1.108-5.624,0.612l-6.324,7.868c-1.384,1.724-1.112,4.24,0.612,5.624
			c0.74,0.596,1.624,0.884,2.504,0.884c1.172,0,2.332-0.512,3.12-1.496l6.324-7.868C144.872,164.494,144.6,161.978,142.876,160.594z
			"/>
	</g>
</g>
<g>
	<g>
		<path d="M143.488,208.506l-6.324-7.86c-1.384-1.724-3.9-1.992-5.624-0.612c-1.724,1.384-1.996,3.904-0.612,5.624l6.324,7.86
			c0.792,0.988,1.952,1.496,3.12,1.496c0.88,0,1.764-0.292,2.504-0.884C144.6,212.746,144.872,210.226,143.488,208.506z"/>
	</g>
</g>
<g>
	<g>
		<path d="M112.792,169.074l-6.324-7.868c-1.38-1.72-3.904-1.992-5.624-0.612c-1.724,1.384-1.996,3.904-0.612,5.624l6.324,7.868
			c0.788,0.984,1.952,1.496,3.12,1.496c0.884,0,1.768-0.292,2.504-0.884C113.904,173.314,114.176,170.794,112.792,169.074z"/>
	</g>
</g>
<g>
	<g>
		<path d="M112.184,200.038c-1.72-1.384-4.236-1.112-5.624,0.608l-6.324,7.86c-1.388,1.72-1.112,4.24,0.608,5.624
			c0.74,0.596,1.624,0.884,2.504,0.884c1.172,0,2.328-0.512,3.12-1.492l6.324-7.86C114.18,203.942,113.904,201.422,112.184,200.038z
			"/>
	</g>
</g>
<g>
	<g>
		<path d="M131.636,183.37c-2.208,0-4,1.792-4,4c0,3.46-2.82,6.276-6.284,6.276c-3.468,0-6.288-2.816-6.288-6.276
			c0-3.468,2.82-6.288,6.288-6.288c2.208,0,4-1.792,4-4s-1.792-4-4-4c-7.88,0-14.288,6.408-14.288,14.288
			c0,7.872,6.408,14.276,14.288,14.276c7.876,0,14.284-6.404,14.284-14.276C135.636,185.162,133.844,183.37,131.636,183.37z"/>
	</g>
</g>
<g>
	<g>
		<path d="M271.076,160.594c-1.716-1.38-4.24-1.108-5.624,0.612l-6.324,7.868c-1.384,1.72-1.112,4.24,0.612,5.624
			c0.74,0.596,1.624,0.884,2.504,0.884c1.172,0,2.332-0.512,3.12-1.496l6.324-7.868C273.072,164.498,272.8,161.978,271.076,160.594z
			"/>
	</g>
</g>
<g>
	<g>
		<path d="M271.684,208.506l-6.324-7.86c-1.384-1.72-3.896-1.988-5.624-0.608c-1.72,1.384-1.992,3.9-0.608,5.624l6.324,7.86
			c0.792,0.984,1.952,1.492,3.12,1.492c0.88,0,1.764-0.292,2.504-0.884C272.796,212.746,273.068,210.23,271.684,208.506z"/>
	</g>
</g>
<g>
	<g>
		<path d="M240.988,169.074l-6.324-7.868c-1.38-1.72-3.904-1.996-5.624-0.612c-1.724,1.384-1.996,3.9-0.612,5.624l6.324,7.868
			c0.788,0.984,1.952,1.496,3.12,1.496c0.88,0,1.768-0.292,2.504-0.884C242.1,173.314,242.372,170.798,240.988,169.074z"/>
	</g>
</g>
<g>
	<g>
		<path d="M240.38,200.034c-1.716-1.38-4.236-1.112-5.624,0.612l-6.324,7.86c-1.384,1.72-1.112,4.24,0.612,5.624
			c0.74,0.596,1.624,0.884,2.504,0.884c1.168,0,2.328-0.512,3.12-1.496l6.324-7.86C242.376,203.938,242.104,201.418,240.38,200.034z
			"/>
	</g>
</g>
<g>
	<g>
		<path d="M259.836,183.37c-2.208,0-4,1.792-4,4c0,3.46-2.82,6.276-6.288,6.276c-3.464,0-6.284-2.816-6.284-6.276
			c0-3.468,2.82-6.288,6.284-6.288c2.208,0,4-1.792,4-4s-1.792-4-4-4c-7.876,0-14.284,6.408-14.284,14.288
			c0,7.872,6.408,14.276,14.284,14.276c7.876,0,14.288-6.404,14.288-14.276C263.836,185.162,262.044,183.37,259.836,183.37z"/>
	</g>
</g>
<g>
	<g>
		<path d="M399.152,160.598c-1.72-1.384-4.236-1.112-5.624,0.608l-6.328,7.868c-1.388,1.72-1.112,4.24,0.608,5.624
			c0.74,0.596,1.624,0.884,2.504,0.884c1.168,0,2.328-0.512,3.12-1.492l6.328-7.868
			C401.148,164.502,400.872,161.982,399.152,160.598z"/>
	</g>
</g>
<g>
	<g>
		<path d="M399.76,208.506l-6.328-7.86c-1.384-1.728-3.908-1.996-5.624-0.608c-1.72,1.384-1.996,3.904-0.608,5.624l6.328,7.86
			c0.788,0.984,1.948,1.492,3.116,1.492c0.88,0,1.768-0.292,2.508-0.884C400.872,212.746,401.148,210.226,399.76,208.506z"/>
	</g>
</g>
<g>
	<g>
		<path d="M369.068,169.074l-6.324-7.868c-1.38-1.72-3.904-1.992-5.624-0.612c-1.724,1.384-1.996,3.904-0.612,5.624l6.324,7.868
			c0.788,0.984,1.952,1.496,3.12,1.496c0.88,0,1.764-0.292,2.504-0.884C370.18,173.314,370.452,170.794,369.068,169.074z"/>
	</g>
</g>
<g>
	<g>
		<path d="M368.46,200.038c-1.72-1.384-4.236-1.112-5.624,0.608l-6.324,7.86c-1.388,1.72-1.112,4.24,0.608,5.624
			c0.74,0.596,1.624,0.884,2.504,0.884c1.168,0,2.328-0.512,3.12-1.492l6.324-7.86C370.456,203.942,370.18,201.422,368.46,200.038z"
			/>
	</g>
</g>
<g>
	<g>
		<path d="M70.736,388.33H55.144c-2.208,0-4,1.792-4,4v11.696c0,2.208,1.792,4,4,4h15.592c2.208,0,4-1.788,4-4V392.33
			C74.736,390.122,72.944,388.33,70.736,388.33z M66.736,400.026h-7.592v-3.696h7.592V400.026z"/>
	</g>
</g>
<g>
	<g>
		<path d="M444.96,388.33h-11.696c-2.208,0-4,1.792-4,4v11.696c0,2.208,1.792,4,4,4h11.696c2.208,0,4-1.788,4-4V392.33
			C448.96,390.122,447.168,388.33,444.96,388.33z M440.96,400.026h-3.696v-3.696h3.696V400.026z"/>
	</g>
</g>
<g>
	<g>
		<path d="M187.68,95.974c-2.208,0-4,1.792-4,4v175.412c0,2.208,1.792,4,4,4c2.212,0,4-1.788,4-4V99.974
			C191.68,97.766,189.888,95.974,187.68,95.974z"/>
	</g>
</g>
<g>
	<g>
		<path d="M308.524,95.974c-2.208,0-4,1.792-4,4v175.412c0,2.208,1.792,4,4,4s4-1.788,4-4V99.974
			C312.524,97.766,310.732,95.974,308.524,95.974z"/>
	</g>
</g>
<g>
</g>
<g>
</g>
<g>
</g>
<g>
</g>
<g>
</g>
<g>
</g>
<g>
</g>
<g>
</g>
<g>
</g>
<g>
</g>
<g>
</g>
<g>
</g>
<g>
</g>
<g>
</g>
<g>
</g>
</svg>
